<svg width="270" height="181" viewBox="0 0 270 181" fill="none" xmlns="http://www.w3.org/2000/svg">
<path d="M270 13H12.7174L12.5465 94.1905L257.454 94.6518V131.095V168H20.9126H9.56003H0" stroke="white" stroke-width="25"/>
<path d="M42.7012 70.8394V37.2394H55.8052C58.7492 37.2394 61.2612 37.7034 63.3412 38.6314C65.4212 39.5594 67.0212 40.9034 68.1412 42.6634C69.2612 44.4234 69.8212 46.5194 69.8212 48.9514C69.8212 51.3834 69.2612 53.4794 68.1412 55.2394C67.0212 56.9674 65.4212 58.3114 63.3412 59.2714C61.2612 60.1994 58.7492 60.6634 55.8052 60.6634H45.3412L47.5012 58.4074V70.8394H42.7012ZM47.5012 58.8874L45.3412 56.4874H55.6612C58.7332 56.4874 61.0532 55.8314 62.6212 54.5194C64.2212 53.2074 65.0212 51.3514 65.0212 48.9514C65.0212 46.5514 64.2212 44.6954 62.6212 43.3834C61.0532 42.0714 58.7332 41.4154 55.6612 41.4154H45.3412L47.5012 39.0154V58.8874ZM107.833 70.8394V37.2394H112.633V66.6634H130.825V70.8394H107.833ZM162.205 70.8394L177.421 37.2394H182.173L197.437 70.8394H192.397L178.813 39.9274H180.733L167.149 70.8394H162.205ZM168.685 62.4394L169.981 58.5994H188.893L190.285 62.4394H168.685ZM239.506 70.8394V57.9754L240.61 60.9514L226.162 37.2394H231.298L243.442 57.2554H240.658L252.85 37.2394H257.602L243.202 60.9514L244.258 57.9754V70.8394H239.506Z" fill="white"/>
<path d="M17.3724 149.491C14.8124 149.491 12.3644 149.107 10.0284 148.339C7.69238 147.539 5.85238 146.515 4.50838 145.267L6.28438 141.523C7.56438 142.643 9.19638 143.571 11.1804 144.307C13.1644 145.043 15.2284 145.411 17.3724 145.411C19.3244 145.411 20.9084 145.187 22.1244 144.739C23.3404 144.291 24.2364 143.683 24.8124 142.915C25.3884 142.115 25.6764 141.219 25.6764 140.227C25.6764 139.075 25.2924 138.147 24.5244 137.443C23.7884 136.739 22.8124 136.179 21.5964 135.763C20.4124 135.315 19.1004 134.931 17.6604 134.611C16.2204 134.291 14.7644 133.923 13.2924 133.507C11.8524 133.059 10.5244 132.499 9.30838 131.827C8.12438 131.155 7.16438 130.259 6.42838 129.139C5.69238 127.987 5.32438 126.515 5.32438 124.723C5.32438 122.995 5.77238 121.411 6.66838 119.971C7.59638 118.499 9.00438 117.331 10.8924 116.467C12.8124 115.571 15.2444 115.123 18.1884 115.123C20.1404 115.123 22.0764 115.379 23.9964 115.891C25.9164 116.403 27.5804 117.139 28.9884 118.099L27.4044 121.939C25.9644 120.979 24.4444 120.291 22.8444 119.875C21.2444 119.427 19.6924 119.203 18.1884 119.203C16.3004 119.203 14.7484 119.443 13.5324 119.923C12.3164 120.403 11.4204 121.043 10.8444 121.843C10.3004 122.643 10.0284 123.539 10.0284 124.531C10.0284 125.715 10.3964 126.659 11.1324 127.363C11.9004 128.067 12.8764 128.627 14.0604 129.043C15.2764 129.459 16.6044 129.843 18.0444 130.195C19.4844 130.515 20.9244 130.883 22.3644 131.299C23.8364 131.715 25.1644 132.259 26.3484 132.931C27.5644 133.603 28.5404 134.499 29.2764 135.619C30.0124 136.739 30.3804 138.179 30.3804 139.939C30.3804 141.635 29.9164 143.219 28.9884 144.691C28.0604 146.131 26.6204 147.299 24.6684 148.195C22.7484 149.059 20.3164 149.491 17.3724 149.491ZM48.6361 149.107V119.683H37.1161V115.507H64.9081V119.683H53.3881V149.107H48.6361ZM68.4005 149.107L83.6165 115.507H88.3685L103.633 149.107H98.5925L85.0085 118.195H86.9285L73.3445 149.107H68.4005ZM74.8805 140.707L76.1765 136.867H95.0885L96.4805 140.707H74.8805ZM118.669 149.107V119.683H107.149V115.507H134.941V119.683H123.421V149.107H118.669ZM145.209 149.107V115.507H150.009V149.107H145.209ZM180.277 149.491C177.717 149.491 175.333 149.059 173.125 148.195C170.949 147.331 169.061 146.131 167.461 144.595C165.861 143.027 164.613 141.203 163.717 139.123C162.821 137.043 162.373 134.771 162.373 132.307C162.373 129.843 162.821 127.571 163.717 125.491C164.613 123.411 165.861 121.603 167.461 120.067C169.061 118.499 170.949 117.283 173.125 116.419C175.301 115.555 177.685 115.123 180.277 115.123C182.837 115.123 185.189 115.555 187.333 116.419C189.509 117.251 191.397 118.451 192.997 120.019C194.629 121.555 195.877 123.363 196.741 125.443C197.637 127.523 198.085 129.811 198.085 132.307C198.085 134.803 197.637 137.091 196.741 139.171C195.877 141.251 194.629 143.075 192.997 144.643C191.397 146.179 189.509 147.379 187.333 148.243C185.189 149.075 182.837 149.491 180.277 149.491ZM180.277 145.219C182.133 145.219 183.845 144.899 185.413 144.259C187.013 143.619 188.389 142.723 189.541 141.571C190.725 140.387 191.637 139.011 192.277 137.443C192.949 135.875 193.285 134.163 193.285 132.307C193.285 130.451 192.949 128.739 192.277 127.171C191.637 125.603 190.725 124.243 189.541 123.091C188.389 121.907 187.013 120.995 185.413 120.355C183.845 119.715 182.133 119.395 180.277 119.395C178.389 119.395 176.645 119.715 175.045 120.355C173.477 120.995 172.101 121.907 170.917 123.091C169.733 124.243 168.805 125.603 168.133 127.171C167.493 128.739 167.173 130.451 167.173 132.307C167.173 134.163 167.493 135.875 168.133 137.443C168.805 139.011 169.733 140.387 170.917 141.571C172.101 142.723 173.477 143.619 175.045 144.259C176.645 144.899 178.389 145.219 180.277 145.219ZM210.461 149.107V115.507H214.397L236.621 143.107H234.557V115.507H239.357V149.107H235.421L213.197 121.507H215.261V149.107H210.461Z" fill="white"/>
</svg>
