<svg width="150" height="80" viewBox="0 0 150 80" fill="none" xmlns="http://www.w3.org/2000/svg">
<rect width="150" height="80" rx="20" fill="#0D0D0D"/>
<path d="M31.984 58V24.4H46.528C49.536 24.4 52.128 24.896 54.304 25.888C56.48 26.848 58.16 28.24 59.344 30.064C60.528 31.888 61.12 34.064 61.12 36.592C61.12 39.088 60.528 41.248 59.344 43.072C58.16 44.896 56.48 46.304 54.304 47.296C52.128 48.256 49.536 48.736 46.528 48.736H36.304L39.76 45.232V58H31.984ZM39.76 46.096L36.304 42.4H46.096C48.496 42.4 50.288 41.888 51.472 40.864C52.656 39.84 53.248 38.416 53.248 36.592C53.248 34.736 52.656 33.296 51.472 32.272C50.288 31.248 48.496 30.736 46.096 30.736H36.304L39.76 27.04V46.096ZM78.1803 58.576C75.4923 58.576 72.9163 58.224 70.4523 57.52C67.9883 56.784 66.0043 55.84 64.5003 54.688L67.1403 48.832C68.5803 49.856 70.2763 50.704 72.2283 51.376C74.2123 52.016 76.2123 52.336 78.2283 52.336C79.7643 52.336 80.9963 52.192 81.9243 51.904C82.8843 51.584 83.5883 51.152 84.0363 50.608C84.4843 50.064 84.7083 49.44 84.7083 48.736C84.7083 47.84 84.3563 47.136 83.6523 46.624C82.9483 46.08 82.0203 45.648 80.8683 45.328C79.7163 44.976 78.4363 44.656 77.0283 44.368C75.6523 44.048 74.2603 43.664 72.8523 43.216C71.4763 42.768 70.2123 42.192 69.0603 41.488C67.9083 40.784 66.9643 39.856 66.2283 38.704C65.5243 37.552 65.1723 36.08 65.1723 34.288C65.1723 32.368 65.6843 30.624 66.7083 29.056C67.7643 27.456 69.3323 26.192 71.4123 25.264C73.5243 24.304 76.1643 23.824 79.3323 23.824C81.4443 23.824 83.5243 24.08 85.5723 24.592C87.6203 25.072 89.4283 25.808 90.9963 26.8L88.5963 32.704C87.0283 31.808 85.4603 31.152 83.8923 30.736C82.3243 30.288 80.7883 30.064 79.2843 30.064C77.7803 30.064 76.5483 30.24 75.5883 30.592C74.6283 30.944 73.9403 31.408 73.5243 31.984C73.1083 32.528 72.9003 33.168 72.9003 33.904C72.9003 34.768 73.2523 35.472 73.9563 36.016C74.6603 36.528 75.5883 36.944 76.7403 37.264C77.8923 37.584 79.1563 37.904 80.5323 38.224C81.9403 38.544 83.3323 38.912 84.7083 39.328C86.1163 39.744 87.3963 40.304 88.5483 41.008C89.7003 41.712 90.6283 42.64 91.3323 43.792C92.0683 44.944 92.4363 46.4 92.4363 48.16C92.4363 50.048 91.9083 51.776 90.8523 53.344C89.7963 54.912 88.2123 56.176 86.1003 57.136C84.0203 58.096 81.3803 58.576 78.1803 58.576ZM107.062 58.576C104.726 58.576 102.406 58.272 100.102 57.664C97.8296 57.024 95.8776 56.128 94.2456 54.976L97.3176 49.024C98.5976 49.952 100.07 50.688 101.734 51.232C103.43 51.776 105.142 52.048 106.87 52.048C108.822 52.048 110.358 51.664 111.478 50.896C112.598 50.128 113.158 49.056 113.158 47.68C113.158 46.816 112.934 46.048 112.486 45.376C112.038 44.704 111.238 44.192 110.086 43.84C108.966 43.488 107.382 43.312 105.334 43.312H96.7416L98.4696 24.4H118.966V30.64H101.254L105.286 27.088L104.086 40.576L100.054 37.024H107.158C110.486 37.024 113.158 37.488 115.174 38.416C117.222 39.312 118.71 40.544 119.638 42.112C120.566 43.68 121.03 45.456 121.03 47.44C121.03 49.424 120.534 51.264 119.542 52.96C118.55 54.624 117.014 55.984 114.934 57.04C112.886 58.064 110.262 58.576 107.062 58.576Z" fill="white"/>
</svg>
